<?xml version="1.0" encoding="UTF-8"?>
<svg version="1.1" xmlns="http://www.w3.org/2000/svg" width="500" height="500">
<path d="M0 0 C165 0 330 0 500 0 C500 165 500 330 500 500 C335 500 170 500 0 500 C0 335 0 170 0 0 Z " fill="#FEFEFE" transform="translate(0,0)"/>
<path d="M0 0 C3.96 0 7.92 0 12 0 C12.33 7.59 12.66 15.18 13 23 C14.32 21.02 15.64 19.04 17 17 C20.97488936 13.02511064 24.45711607 12.67365013 29.875 12.5 C35.73010441 12.67911184 40.33122014 13.32832137 45 17 C47.5 19.75 47.5 19.75 49 22 C49.38671875 21.51789063 49.7734375 21.03578125 50.171875 20.5390625 C50.69265625 19.90742188 51.2134375 19.27578125 51.75 18.625 C52.51570313 17.68527344 52.51570313 17.68527344 53.296875 16.7265625 C57.08181771 12.88953343 60.52455537 12.68229084 65.8125 12.625 C71.81238753 12.69999859 75.29777349 13.28196044 80 17 C80.495 17.99 80.495 17.99 81 19 C81.33 17.02 81.66 15.04 82 13 C83.65 13 85.3 13 87 13 C87 10.03 87 7.06 87 4 C90.63 4 94.26 4 98 4 C98 6.97 98 9.94 98 13 C104.27 13 110.54 13 117 13 C117.495 15.475 117.495 15.475 118 18 C118.81726563 17.18144531 119.63453125 16.36289063 120.4765625 15.51953125 C124.31391048 12.32174127 127.55210431 12.40405676 132.375 12.6875 C133.47908203 12.72133789 133.47908203 12.72133789 134.60546875 12.75585938 C136.40453842 12.81427073 138.20254753 12.90393663 140 13 C140.33 16.3 140.66 19.6 141 23 C141.495 22.0925 141.99 21.185 142.5 20.25 C145.2398107 16.24930757 148.34591779 14.30460887 153 13 C158.94502423 12.28862958 164.09298916 12.09667907 169.5625 14.6875 C171.97957642 16.98062379 174.04971251 19.29960193 176 22 C176.59748047 21.27683594 176.59748047 21.27683594 177.20703125 20.5390625 C177.73683594 19.90742188 178.26664063 19.27578125 178.8125 18.625 C179.59560547 17.68527344 179.59560547 17.68527344 180.39453125 16.7265625 C182.6917776 14.25604453 184.36175853 13.07000654 187.7421875 12.69921875 C188.77601563 12.69535156 189.80984375 12.69148437 190.875 12.6875 C192.41800781 12.66236328 192.41800781 12.66236328 193.9921875 12.63671875 C197.3553662 13.04292085 199.2479883 14.07562281 202 16 C202.33 15.01 202.66 14.02 203 13 C206.96 13 210.92 13 215 13 C215 25.54 215 38.08 215 51 C211.04 51 207.08 51 203 51 C202.67 50.01 202.34 49.02 202 48 C201.401875 48.495 200.80375 48.99 200.1875 49.5 C195.47879144 51.71586285 191.11902542 51.67751807 186 51 C181.52440594 48.80289019 178.90116933 46.01700369 176 42 C175.62488281 42.48210937 175.24976563 42.96421875 174.86328125 43.4609375 C174.35152344 44.09257812 173.83976563 44.72421875 173.3125 45.375 C172.56419922 46.31472656 172.56419922 46.31472656 171.80078125 47.2734375 C167.07255462 51.80679144 161.28888561 51.41808059 155.1015625 51.3203125 C151.09205266 50.90623214 148.94914784 49.72229032 146 47 C145.236875 46.319375 144.47375 45.63875 143.6875 44.9375 C142 43 142 43 141 40 C140.67 43.63 140.34 47.26 140 51 C136.04 51 132.08 51 128 51 C128 42.42 128 33.84 128 25 C121.44080746 25.2635952 121.44080746 25.2635952 119.09448242 27.75097656 C117.84283628 30.32295163 117.57527312 32.13104175 117.48828125 34.984375 C117.43510742 36.38623047 117.43510742 36.38623047 117.38085938 37.81640625 C117.35830078 38.78449219 117.33574219 39.75257813 117.3125 40.75 C117.27833984 41.73355469 117.24417969 42.71710938 117.20898438 43.73046875 C117.12664727 46.15353199 117.05745162 48.57623998 117 51 C113.29208456 51.14592789 109.58491274 51.23427895 105.875 51.3125 C104.82828125 51.35439453 103.7815625 51.39628906 102.703125 51.43945312 C93.97038752 51.57762935 93.97038752 51.57762935 90.3828125 48.73046875 C87.10638555 44.97600573 85.73713659 42.45189259 85.8046875 37.453125 C85.81113281 36.60878906 85.81757813 35.76445312 85.82421875 34.89453125 C85.84935547 33.58548828 85.84935547 33.58548828 85.875 32.25 C85.88402344 31.36183594 85.89304687 30.47367188 85.90234375 29.55859375 C85.92585423 27.37211942 85.95871501 25.18619906 86 23 C85.34 23 84.68 23 84 23 C84 24.32 84 25.64 84 27 C82.08458862 27.10841951 80.16740227 27.18578079 78.25 27.25 C77.18265625 27.29640625 76.1153125 27.3428125 75.015625 27.390625 C71.31795509 26.91165221 70.4476663 25.68607535 68 23 C64.86637282 22.91107661 64.86637282 22.91107661 62 24 C59.84057181 27.23914229 59.72767022 28.24859733 59.75 32 C59.74484375 32.86625 59.7396875 33.7325 59.734375 34.625 C59.84585448 37.265795 59.84585448 37.265795 62 40 C63.901994 40.47558206 63.901994 40.47558206 66 40.375 C67.051875 40.38660156 67.051875 40.38660156 68.125 40.3984375 C70.41058594 40.140914 70.41058594 40.140914 72 37 C74.8203125 36.70703125 74.8203125 36.70703125 78.125 36.8125 C79.76855469 36.85310547 79.76855469 36.85310547 81.4453125 36.89453125 C82.70988281 36.94673828 82.70988281 36.94673828 84 37 C83.7338032 40.81548744 83.25745727 42.68369535 80.8125 45.6875 C74.66393768 50.74298458 69.92897596 51.5482244 62.0625 51.3515625 C55.70281495 50.62149661 52.21656485 46.46459808 48 42 C47.62488281 42.48210937 47.24976563 42.96421875 46.86328125 43.4609375 C46.35152344 44.09257812 45.83976562 44.72421875 45.3125 45.375 C44.81363281 46.00148438 44.31476563 46.62796875 43.80078125 47.2734375 C39.12717866 51.75441872 33.36701945 51.47998389 27.23828125 51.3828125 C22.5553738 50.82922392 19.40430943 49.22972946 16 46 C14 43.1875 14 43.1875 13 41 C12.67 44.3 12.34 47.6 12 51 C8.04 51 4.08 51 0 51 C0 34.17 0 17.34 0 0 Z " fill="#040404" transform="translate(173,211)"/>
<path d="M0 0 C3.96 0 7.92 0 12 0 C12.33 7.59 12.66 15.18 13 23 C14.32 21.02 15.64 19.04 17 17 C20.97488936 13.02511064 24.45711607 12.67365013 29.875 12.5 C35.73010441 12.67911184 40.33122014 13.32832137 45 17 C47.5 19.75 47.5 19.75 49 22 C49.38671875 21.51789063 49.7734375 21.03578125 50.171875 20.5390625 C50.69265625 19.90742188 51.2134375 19.27578125 51.75 18.625 C52.51570313 17.68527344 52.51570313 17.68527344 53.296875 16.7265625 C57.08181771 12.88953343 60.52455537 12.68229084 65.8125 12.625 C71.81238753 12.69999859 75.29777349 13.28196044 80 17 C80.495 17.99 80.495 17.99 81 19 C81.33 17.02 81.66 15.04 82 13 C83.65 13 85.3 13 87 13 C87 10.03 87 7.06 87 4 C90.63 4 94.26 4 98 4 C98 6.97 98 9.94 98 13 C100.64 13 103.28 13 106 13 C106 25.54 106 38.08 106 51 C94 51 94 51 90.375 48.75 C87.11815761 44.97891934 85.7371182 42.45325335 85.8046875 37.453125 C85.81113281 36.60878906 85.81757813 35.76445312 85.82421875 34.89453125 C85.84935547 33.58548828 85.84935547 33.58548828 85.875 32.25 C85.88402344 31.36183594 85.89304687 30.47367188 85.90234375 29.55859375 C85.92585423 27.37211942 85.95871501 25.18619906 86 23 C85.34 23 84.68 23 84 23 C84 24.32 84 25.64 84 27 C82.08458862 27.10841951 80.16740227 27.18578079 78.25 27.25 C77.18265625 27.29640625 76.1153125 27.3428125 75.015625 27.390625 C71.31795509 26.91165221 70.4476663 25.68607535 68 23 C64.86637282 22.91107661 64.86637282 22.91107661 62 24 C59.84057181 27.23914229 59.72767022 28.24859733 59.75 32 C59.74484375 32.86625 59.7396875 33.7325 59.734375 34.625 C59.84585448 37.265795 59.84585448 37.265795 62 40 C63.901994 40.47558206 63.901994 40.47558206 66 40.375 C67.051875 40.38660156 67.051875 40.38660156 68.125 40.3984375 C70.41058594 40.140914 70.41058594 40.140914 72 37 C74.8203125 36.70703125 74.8203125 36.70703125 78.125 36.8125 C79.76855469 36.85310547 79.76855469 36.85310547 81.4453125 36.89453125 C82.70988281 36.94673828 82.70988281 36.94673828 84 37 C83.7338032 40.81548744 83.25745727 42.68369535 80.8125 45.6875 C74.66393768 50.74298458 69.92897596 51.5482244 62.0625 51.3515625 C55.70281495 50.62149661 52.21656485 46.46459808 48 42 C47.62488281 42.48210937 47.24976563 42.96421875 46.86328125 43.4609375 C46.35152344 44.09257812 45.83976562 44.72421875 45.3125 45.375 C44.81363281 46.00148438 44.31476563 46.62796875 43.80078125 47.2734375 C39.12717866 51.75441872 33.36701945 51.47998389 27.23828125 51.3828125 C22.5553738 50.82922392 19.40430943 49.22972946 16 46 C14 43.1875 14 43.1875 13 41 C12.67 44.3 12.34 47.6 12 51 C8.04 51 4.08 51 0 51 C0 34.17 0 17.34 0 0 Z " fill="#080808" transform="translate(173,211)"/>
<path d="M0 0 C3.96 0 7.92 0 12 0 C12 16.83 12 33.66 12 51 C8.04 51 4.08 51 0 51 C-0.495 49.02 -0.495 49.02 -1 47 C-1.5775 47.66 -2.155 48.32 -2.75 49 C-7.70386859 52.04853452 -12.34140648 52.10536562 -18 51 C-22.53654885 48.38632115 -26.10430616 44.93595755 -28 40 C-28.28480806 37.9257375 -28.48874224 35.83928561 -28.625 33.75 C-28.69976562 32.67234375 -28.77453125 31.5946875 -28.8515625 30.484375 C-28.90054688 29.66453125 -28.94953125 28.8446875 -29 28 C-29.7425 28.61875 -30.485 29.2375 -31.25 29.875 C-35.96171297 33.51586912 -38.7289475 34.24542105 -44.75 34.125 C-47.84375 34.063125 -47.84375 34.063125 -51 34 C-51 39.61 -51 45.22 -51 51 C-54.96 51 -58.92 51 -63 51 C-63 35.16 -63 19.32 -63 3 C-59.04 2.9175 -55.08 2.835 -51 2.75 C-49.15148437 2.69537598 -49.15148437 2.69537598 -47.265625 2.63964844 C-40.35154497 2.57023896 -35.8208546 3.16708639 -30 7 C-27.10817912 10.55226244 -25.55150348 14.45009633 -25 19 C-24.278125 18.21625 -23.55625 17.4325 -22.8125 16.625 C-19.51675846 13.54897456 -17.44249528 11.99554289 -12.859375 12.00390625 C-7.72095639 12.40375008 -5.70574078 13.17655553 -1 16 C-0.67 10.72 -0.34 5.44 0 0 Z " fill="#080808" transform="translate(129,211)"/>
<path d="M0 0 C3.96 0 7.92 0 12 0 C12 12.54 12 25.08 12 38 C15.63 38 19.26 38 23 38 C23.99 39.32 24.98 40.64 26 42 C29.12586875 42.33397787 29.12586875 42.33397787 32 42 C32 40.68 32 39.36 32 38 C31.11957031 37.75765625 30.23914063 37.5153125 29.33203125 37.265625 C28.17058594 36.93046875 27.00914062 36.5953125 25.8125 36.25 C24.66394531 35.92515625 23.51539063 35.6003125 22.33203125 35.265625 C18.86956236 33.9504551 16.66543624 32.55336122 14 30 C12.79809099 26.39427296 12.67329685 23.7897565 13 20 C15.19061041 16.47937612 17.15165964 14.48164382 21 13 C24.27734375 12.69921875 24.27734375 12.69921875 27.9375 12.6875 C29.14277344 12.67074219 30.34804688 12.65398437 31.58984375 12.63671875 C36.4872641 13.15843707 38.97399138 14.91853145 42.3125 18.4375 C44 21 44 21 44 25 C42.39667209 25.08121924 40.79215974 25.13929134 39.1875 25.1875 C37.84751953 25.23970703 37.84751953 25.23970703 36.48046875 25.29296875 C33.51487677 24.94270198 32.95639919 24.13425366 31 22 C27.87450983 21.74951364 27.87450983 21.74951364 25 22 C24.67 23.32 24.34 24.64 24 26 C24.72445313 26.18175781 25.44890625 26.36351562 26.1953125 26.55078125 C40.10519323 30.16735024 40.10519323 30.16735024 44 35 C44.74548893 38.40960054 44.69219188 41.58264325 44 45 C41.88419192 47.86636996 39.17500477 49.41249762 36 51 C28.07670717 51.62687531 21.39784857 52.08919773 15 47 C14.34 46.01 13.68 45.02 13 44 C12.67 46.31 12.34 48.62 12 51 C8.04 51 4.08 51 0 51 C0 34.17 0 17.34 0 0 Z " fill="#0D0D0D" transform="translate(390,211)"/>
<path d="M0 0 C9.57 0 19.14 0 29 0 C29 2.97 29 5.94 29 9 C23.06 9 17.12 9 11 9 C11 12.3 11 15.6 11 19 C16.28 19 21.56 19 27 19 C27 21.97 27 24.94 27 28 C21.72 28 16.44 28 11 28 C11 31.63 11 35.26 11 39 C16.94 39 22.88 39 29 39 C29 41.97 29 44.94 29 48 C19.43 48 9.86 48 0 48 C0 32.16 0 16.32 0 0 Z " fill="#010101" transform="translate(143,214)"/>
<path d="M0 0 C3.63 0 7.26 0 11 0 C11 16.5 11 33 11 50 C7.37 50 3.74 50 0 50 C0 33.5 0 17 0 0 Z " fill="#000000" transform="translate(390,212)"/>
<path d="M0 0 C3.3 0 6.6 0 10 0 C10 16.5 10 33 10 50 C6.7 50 3.4 50 0 50 C0 33.5 0 17 0 0 Z " fill="#000000" transform="translate(174,212)"/>
<path d="M0 0 C6.27 0 12.54 0 19 0 C19 9.9 19 19.8 19 30 C12.73 30 6.46 30 0 30 C0 26.37 0 22.74 0 19 C5.28 19 10.56 19 16 19 C16 16.03 16 13.06 16 10 C10.72 10 5.44 10 0 10 C0 6.7 0 3.4 0 0 Z " fill="#F0F0F0" transform="translate(154,223)"/>
<path d="M0 0 C2.8125 1.0625 2.8125 1.0625 4.8125 5.0625 C8.7725 5.0625 12.7325 5.0625 16.8125 5.0625 C16.8125 3.7425 16.8125 2.4225 16.8125 1.0625 C17.4725 1.0625 18.1325 1.0625 18.8125 1.0625 C18.8125 6.0125 18.8125 10.9625 18.8125 16.0625 C18.1525 16.3925 17.4925 16.7225 16.8125 17.0625 C16.8125 16.4025 16.8125 15.7425 16.8125 15.0625 C12.8525 15.0625 8.8925 15.0625 4.8125 15.0625 C4.1525 16.3825 3.4925 17.7025 2.8125 19.0625 C-3.14453125 19.453125 -3.14453125 19.453125 -5.1875 19.0625 C-8.0109111 16.27732923 -8.63933007 14.0327855 -8.6875 10.125 C-8.56336427 6.31064767 -8.26058178 5.17212267 -6.0625 1.875 C-3.1875 0.0625 -3.1875 0.0625 0 0 Z " fill="#F8F8F8" transform="translate(240.1875,232.9375)"/>
<path d="M0 0 C2.8125 1 2.8125 1 4.8125 4 C7.23771494 4.58189266 7.23771494 4.58189266 9.9375 4.6875 C11.54625 4.790625 13.155 4.89375 14.8125 5 C14.8125 8.3 14.8125 11.6 14.8125 15 C12.2734375 15.16276042 9.734375 15.32552083 7.1953125 15.48828125 C4.45028399 15.7882039 4.45028399 15.7882039 2.8125 19 C-0.27018708 19.39145233 -2.23957843 19.62093236 -5.1875 19 C-8.07777842 16.20004278 -8.42860057 13.37701899 -8.6875 9.5 C-8.55570398 5.91754446 -8.18262114 4.99282521 -6.0625 1.875 C-3.1875 0 -3.1875 0 0 0 Z " fill="#FAFAFA" transform="translate(333.1875,233)"/>
<path d="M0 0 C4.45850936 0.79616239 5.90783917 1.93313458 8.5 5.625 C9.07167363 9.62671543 8.86938628 11.85264686 7.125 15.5 C5.5 17.625 5.5 17.625 3.5 18.625 C-2.76519337 19.2051105 -2.76519337 19.2051105 -5.875 16.75 C-8.77394168 12.95907627 -8.98603989 10.40439224 -8.5 5.625 C-5.90783917 1.93313458 -4.45850936 0.79616239 0 0 Z " fill="#F5F5F5" transform="translate(120.5,233.375)"/>
<path d="M0 0 C2.5 1.4375 2.5 1.4375 4 4 C4.80919392 8.51799941 4.52355333 11.93107862 2.5 16.0625 C-0.52898356 18.40996226 -2.32798408 18.74665787 -6.09375 18.47265625 C-8 18 -8 18 -10.5 16.0625 C-12.52355333 11.93107862 -12.80919392 8.51799941 -12 4 C-9.21030092 -0.76573593 -5.06596452 -0.98620211 0 0 Z " fill="#FAFAFA" transform="translate(372,234)"/>
<path d="M0 0 C8.17817372 -0.36080178 8.17817372 -0.36080178 11.5625 1.125 C13 3 13 3 13.5 5.9375 C13 9 13 9 11.5625 11.375 C7.67632781 13.83940188 4.54866791 13.2675687 0 13 C0 8.71 0 4.42 0 0 Z " fill="#E9E9E9" transform="translate(78,223)"/>
<path d="M0 0 C2.64 0 5.28 0 8 0 C8 5.94 8 11.88 8 18 C5.69 18 3.38 18 1 18 C0 17 0 17 -0.09765625 13.18359375 C-0.09098089 11.60153318 -0.07901875 10.01948841 -0.0625 8.4375 C-0.05798828 7.63119141 -0.05347656 6.82488281 -0.04882812 5.99414062 C-0.03700518 3.99606244 -0.01906914 1.99802217 0 0 Z " fill="#F5F5F5" transform="translate(271,234)"/>
<path d="M0 0 C2.3125 1.625 2.3125 1.625 4 4 C4.5 7.0625 4.5 7.0625 4 10 C1.74827097 12.59814888 0.34982295 12.95716454 -3.0625 13.375 C-6 13 -6 13 -7.875 11.9375 C-9.66235303 8.85928089 -9.43386742 6.47093932 -9 3 C-6.35893733 -0.03233122 -3.92985113 -0.68772395 0 0 Z " fill="#0B0B0B" transform="translate(310,207)"/>
<path d="M0 0 C1.08353364 2.16706727 2.15103642 4.34402741 3.125 6.5625 C5.82364328 10.07073626 8.88091046 10.70959496 13 12 C14.50322633 12.55382023 16.0034137 13.11597948 17.5 13.6875 C18.655 14.120625 19.81 14.55375 21 15 C21 16.32 21 17.64 21 19 C20 20 20 20 17.125 20.3125 C16.09375 20.209375 15.0625 20.10625 14 20 C13.55785156 19.34902344 13.11570312 18.69804687 12.66015625 18.02734375 C11.13381024 15.73935445 11.13381024 15.73935445 8.30078125 15.390625 C6.82158203 15.32101563 6.82158203 15.32101563 5.3125 15.25 C3.559375 15.1675 1.80625 15.085 0 15 C0 10.05 0 5.1 0 0 Z " fill="#F5F5F5" transform="translate(402,234)"/>
<path d="M0 0 C7.92 0 15.84 0 24 0 C24 0.99 24 1.98 24 3 C20.04 3 16.08 3 12 3 C11.67 3.99 11.34 4.98 11 6 C8.20129973 7.39935013 6.09501208 7.25265405 3 7 C1.125 5.75 1.125 5.75 0 4 C0 2.68 0 1.36 0 0 Z " fill="#F7F7F7" transform="translate(197,246)"/>
<path d="M0 0 C3.70543535 0.31943408 5.1286282 0.61641846 7.625 3.3125 C7.625 4.3025 7.625 5.2925 7.625 6.3125 C3.005 6.3125 -1.615 6.3125 -6.375 6.3125 C-4.91054502 0.45468009 -4.91054502 0.45468009 0 0 Z " fill="#F6F6F6" transform="translate(203.375,232.6875)"/>
</svg>
